# MagicaVoxel @ Ephtracy

# group
o 

# material
mtllib jump.mtl
usemtl palette

# normals
vn -1 0 0
vn 1 0 0
vn 0 0 1
vn 0 0 -1
vn 0 -1 0
vn 0 1 0

# texcoords
vt 0.556641 0.5
vt 0.912109 0.5
vt 0.978516 0.5

# verts
v -0.7 0.4 0
v -0.7 0.4 -0.1
v -0.7 0.8 0
v -0.7 0.8 -0.1
v -0.6 0.3 0
v -0.6 0.3 -0.1
v -0.6 0.4 0
v -0.6 0.4 -0.1
v -0.6 0.8 0
v -0.6 0.8 -0.1
v -0.6 0.9 0
v -0.6 0.9 -0.1
v -0.5 0 0
v -0.5 0 -0.1
v -0.5 0.2 0
v -0.5 0.2 -0.1
v -0.5 0.9 0
v -0.5 0.9 -0.1
v -0.5 1.2 0
v -0.5 1.2 -0.1
v -0.4 0.2 0
v -0.4 0.2 -0.1
v -0.4 0.3 0
v -0.4 0.3 -0.1
v -0.4 1.2 0
v -0.4 1.2 -0.1
v -0.4 1.3 0
v -0.4 1.3 -0.1
v -0.2 1.2 0
v -0.2 1.2 -0.1
v -0.2 1.3 0
v -0.2 1.3 -0.1
v 0.1 0 0
v 0.1 0 -0.1
v 0.1 0.1 0
v 0.1 0.1 -0.1
v 0.1 0.8 0
v 0.1 0.8 -0.1
v 0.1 0.9 0
v 0.1 0.9 -0.1
v 0.1 1.2 0
v 0.1 1.2 -0.1
v 0.1 1.3 0
v 0.1 1.3 -0.1
v 0.3 0.9 0
v 0.3 0.9 -0.1
v 0.3 1.2 0
v 0.3 1.2 -0.1
v -0.3 1.2 0
v -0.3 1.2 -0.1
v -0.3 1.3 0
v -0.3 1.3 -0.1
v -0.2 0 0
v -0.2 0 -0.1
v -0.2 0.1 0
v -0.2 0.1 -0.1
v -0.1 1.2 0
v -0.1 1.2 -0.1
v -0.1 1.3 0
v -0.1 1.3 -0.1
v 0 0.8 0
v 0 0.8 -0.1
v 0 1.2 0
v 0 1.2 -0.1
v 0.3 0.7 0
v 0.3 0.7 -0.1
v 0.3 0.8 0
v 0.3 0.8 -0.1
v 0.3 0.9 0
v 0.3 0.9 -0.1
v 0.4 0.6 0
v 0.4 0.6 -0.1
v 0.4 0.7 0
v 0.4 0.7 -0.1
v 0.4 0.9 0
v 0.4 0.9 -0.1
v 0.4 1.2 0
v 0.4 1.2 -0.1
v 0.6 1.2 0
v 0.6 1.2 -0.1
v 0.6 1.3 0
v 0.6 1.3 -0.1
v 0.7 0 0
v 0.7 0 -0.1
v 0.7 0.6 0
v 0.7 0.6 -0.1
v -0.7 0.4 0
v -0.7 0.8 0
v -0.6 0.3 0
v -0.6 0.4 0
v -0.6 0.8 0
v -0.6 0.9 0
v -0.5 0 0
v -0.5 0.2 0
v -0.5 0.8 0
v -0.5 0.9 0
v -0.5 1.2 0
v -0.4 0.1 0
v -0.4 0.2 0
v -0.4 0.3 0
v -0.4 0.4 0
v -0.4 0.5 0
v -0.4 0.7 0
v -0.4 0.9 0
v -0.4 1.2 0
v -0.4 1.3 0
v -0.3 0.2 0
v -0.3 0.3 0
v -0.3 0.5 0
v -0.3 0.7 0
v -0.3 0.9 0
v -0.3 1.2 0
v -0.3 1.3 0
v -0.2 0 0
v -0.2 0.1 0
v -0.2 0.2 0
v -0.2 0.9 0
v -0.2 1.2 0
v -0.2 1.3 0
v -0.1 0.8 0
v -0.1 1.2 0
v -0.1 1.3 0
v 0 0.7 0
v 0 0.8 0
v 0 1.2 0
v 0.1 0 0
v 0.1 0.1 0
v 0.1 0.2 0
v 0.1 0.3 0
v 0.1 0.8 0
v 0.1 0.9 0
v 0.1 1.2 0
v 0.1 1.3 0
v 0.3 0.2 0
v 0.3 0.3 0
v 0.3 0.6 0
v 0.3 0.7 0
v 0.3 0.8 0
v 0.3 0.9 0
v 0.3 1.2 0
v 0.4 0.4 0
v 0.4 0.6 0
v 0.4 0.7 0
v 0.4 0.9 0
v 0.4 1.2 0
v 0.5 0.3 0
v 0.5 0.4 0
v 0.5 0.5 0
v 0.6 0.1 0
v 0.6 0.3 0
v 0.6 0.4 0
v 0.6 0.5 0
v 0.6 1.2 0
v 0.6 1.3 0
v 0.7 0 0
v 0.7 0.6 0
v -0.7 0.4 -0.1
v -0.7 0.8 -0.1
v -0.6 0.3 -0.1
v -0.6 0.4 -0.1
v -0.6 0.8 -0.1
v -0.6 0.9 -0.1
v -0.5 0 -0.1
v -0.5 0.2 -0.1
v -0.5 0.8 -0.1
v -0.5 0.9 -0.1
v -0.5 1.2 -0.1
v -0.4 0.1 -0.1
v -0.4 0.2 -0.1
v -0.4 0.3 -0.1
v -0.4 0.4 -0.1
v -0.4 0.5 -0.1
v -0.4 0.7 -0.1
v -0.4 0.9 -0.1
v -0.4 1.2 -0.1
v -0.4 1.3 -0.1
v -0.3 0.2 -0.1
v -0.3 0.3 -0.1
v -0.3 0.5 -0.1
v -0.3 0.7 -0.1
v -0.3 0.9 -0.1
v -0.3 1.2 -0.1
v -0.3 1.3 -0.1
v -0.2 0 -0.1
v -0.2 0.1 -0.1
v -0.2 0.2 -0.1
v -0.2 0.9 -0.1
v -0.2 1.2 -0.1
v -0.2 1.3 -0.1
v -0.1 0.8 -0.1
v -0.1 1.2 -0.1
v -0.1 1.3 -0.1
v 0 0.7 -0.1
v 0 0.8 -0.1
v 0 1.2 -0.1
v 0.1 0 -0.1
v 0.1 0.1 -0.1
v 0.1 0.2 -0.1
v 0.1 0.3 -0.1
v 0.1 0.8 -0.1
v 0.1 0.9 -0.1
v 0.1 1.2 -0.1
v 0.1 1.3 -0.1
v 0.3 0.2 -0.1
v 0.3 0.3 -0.1
v 0.3 0.6 -0.1
v 0.3 0.7 -0.1
v 0.3 0.8 -0.1
v 0.3 0.9 -0.1
v 0.3 1.2 -0.1
v 0.4 0.4 -0.1
v 0.4 0.6 -0.1
v 0.4 0.7 -0.1
v 0.4 0.9 -0.1
v 0.4 1.2 -0.1
v 0.5 0.3 -0.1
v 0.5 0.4 -0.1
v 0.5 0.5 -0.1
v 0.6 0.1 -0.1
v 0.6 0.3 -0.1
v 0.6 0.4 -0.1
v 0.6 0.5 -0.1
v 0.6 1.2 -0.1
v 0.6 1.3 -0.1
v 0.7 0 -0.1
v 0.7 0.6 -0.1
v -0.5 0 0
v -0.2 0 0
v 0.1 0 0
v 0.7 0 0
v -0.5 0 -0.1
v -0.2 0 -0.1
v 0.1 0 -0.1
v 0.7 0 -0.1
v -0.2 0.1 0
v 0.1 0.1 0
v -0.2 0.1 -0.1
v 0.1 0.1 -0.1
v -0.6 0.3 0
v -0.4 0.3 0
v -0.6 0.3 -0.1
v -0.4 0.3 -0.1
v -0.7 0.4 0
v -0.6 0.4 0
v -0.7 0.4 -0.1
v -0.6 0.4 -0.1
v 0.3 0.9 0
v 0.4 0.9 0
v 0.3 0.9 -0.1
v 0.4 0.9 -0.1
v 0.1 1.2 0
v 0.3 1.2 0
v 0.4 1.2 0
v 0.6 1.2 0
v 0.1 1.2 -0.1
v 0.3 1.2 -0.1
v 0.4 1.2 -0.1
v 0.6 1.2 -0.1
v -0.5 0.2 0
v -0.4 0.2 0
v -0.5 0.2 -0.1
v -0.4 0.2 -0.1
v 0.4 0.6 0
v 0.7 0.6 0
v 0.4 0.6 -0.1
v 0.7 0.6 -0.1
v 0.3 0.7 0
v 0.4 0.7 0
v 0.3 0.7 -0.1
v 0.4 0.7 -0.1
v -0.7 0.8 0
v -0.6 0.8 0
v 0 0.8 0
v 0.1 0.8 0
v -0.7 0.8 -0.1
v -0.6 0.8 -0.1
v 0 0.8 -0.1
v 0.1 0.8 -0.1
v -0.6 0.9 0
v -0.5 0.9 0
v 0.1 0.9 0
v 0.3 0.9 0
v -0.6 0.9 -0.1
v -0.5 0.9 -0.1
v 0.1 0.9 -0.1
v 0.3 0.9 -0.1
v -0.5 1.2 0
v -0.4 1.2 0
v -0.3 1.2 0
v -0.2 1.2 0
v -0.1 1.2 0
v 0 1.2 0
v -0.5 1.2 -0.1
v -0.4 1.2 -0.1
v -0.3 1.2 -0.1
v -0.2 1.2 -0.1
v -0.1 1.2 -0.1
v 0 1.2 -0.1
v -0.4 1.3 0
v -0.3 1.3 0
v -0.2 1.3 0
v -0.1 1.3 0
v 0.1 1.3 0
v 0.6 1.3 0
v -0.4 1.3 -0.1
v -0.3 1.3 -0.1
v -0.2 1.3 -0.1
v -0.1 1.3 -0.1
v 0.1 1.3 -0.1
v 0.6 1.3 -0.1

# faces
f 3/3/1 2/3/1 1/3/1
f 4/3/1 2/3/1 3/3/1
f 7/3/1 6/3/1 5/3/1
f 8/3/1 6/3/1 7/3/1
f 11/3/1 10/3/1 9/3/1
f 12/3/1 10/3/1 11/3/1
f 15/3/1 14/3/1 13/3/1
f 16/3/1 14/3/1 15/3/1
f 19/3/1 18/3/1 17/3/1
f 20/3/1 18/3/1 19/3/1
f 23/3/1 22/3/1 21/3/1
f 24/3/1 22/3/1 23/3/1
f 27/3/1 26/3/1 25/3/1
f 28/3/1 26/3/1 27/3/1
f 31/3/1 30/3/1 29/3/1
f 32/3/1 30/3/1 31/3/1
f 35/3/1 34/3/1 33/3/1
f 36/3/1 34/3/1 35/3/1
f 39/1/1 38/1/1 37/1/1
f 40/1/1 38/1/1 39/1/1
f 43/1/1 42/1/1 41/1/1
f 44/1/1 42/1/1 43/1/1
f 47/1/1 46/1/1 45/1/1
f 48/1/1 46/1/1 47/1/1
f 49/3/2 50/3/2 51/3/2
f 51/3/2 50/3/2 52/3/2
f 53/3/2 54/3/2 55/3/2
f 55/3/2 54/3/2 56/3/2
f 57/3/2 58/3/2 59/3/2
f 59/3/2 58/3/2 60/3/2
f 61/3/2 62/3/2 63/3/2
f 63/3/2 62/3/2 64/3/2
f 65/3/2 66/3/2 67/3/2
f 67/3/2 66/3/2 68/3/2
f 67/1/2 68/1/2 69/1/2
f 69/1/2 68/1/2 70/1/2
f 71/3/2 72/3/2 73/3/2
f 73/3/2 72/3/2 74/3/2
f 75/1/2 76/1/2 77/1/2
f 77/1/2 76/1/2 78/1/2
f 79/1/2 80/1/2 81/1/2
f 81/1/2 80/1/2 82/1/2
f 83/3/2 84/3/2 85/3/2
f 85/3/2 84/3/2 86/3/2
f 90/3/3 88/3/3 87/3/3
f 91/3/3 88/3/3 90/3/3
f 95/2/3 91/2/3 90/2/3
f 95/3/3 92/3/3 91/3/3
f 96/3/3 92/3/3 95/3/3
f 98/3/3 94/3/3 93/3/3
f 99/3/3 94/3/3 98/3/3
f 100/3/3 90/3/3 89/3/3
f 101/2/3 95/2/3 90/2/3
f 101/2/3 96/2/3 95/2/3
f 101/3/3 90/3/3 100/3/3
f 102/2/3 96/2/3 101/2/3
f 103/2/3 96/2/3 102/2/3
f 104/3/3 97/3/3 96/3/3
f 104/2/3 96/2/3 103/2/3
f 105/3/3 97/3/3 104/3/3
f 107/2/3 99/2/3 98/2/3
f 107/3/3 100/3/3 99/3/3
f 108/2/3 101/2/3 100/2/3
f 108/3/3 100/3/3 107/3/3
f 108/2/3 102/2/3 101/2/3
f 109/3/3 103/3/3 102/3/3
f 109/2/3 102/2/3 108/2/3
f 110/2/3 105/2/3 104/2/3
f 110/3/3 103/3/3 109/3/3
f 110/2/3 104/2/3 103/2/3
f 111/2/3 105/2/3 110/2/3
f 112/3/3 106/3/3 105/3/3
f 112/2/3 105/2/3 111/2/3
f 113/3/3 106/3/3 112/3/3
f 114/3/3 98/3/3 93/3/3
f 115/2/3 111/2/3 110/2/3
f 115/3/3 98/3/3 114/3/3
f 115/2/3 108/2/3 107/2/3
f 115/2/3 109/2/3 108/2/3
f 115/2/3 110/2/3 109/2/3
f 115/2/3 107/2/3 98/2/3
f 116/2/3 111/2/3 115/2/3
f 117/3/3 112/3/3 111/3/3
f 117/2/3 111/2/3 116/2/3
f 118/3/3 112/3/3 117/3/3
f 120/2/3 117/2/3 116/2/3
f 120/2/3 118/2/3 117/2/3
f 121/3/3 119/3/3 118/3/3
f 121/2/3 118/2/3 120/2/3
f 122/3/3 119/3/3 121/3/3
f 123/2/3 120/2/3 116/2/3
f 124/3/3 121/3/3 120/3/3
f 124/2/3 120/2/3 123/2/3
f 125/3/3 121/3/3 124/3/3
f 127/3/3 116/3/3 115/3/3
f 128/2/3 123/2/3 116/2/3
f 128/3/3 116/3/3 127/3/3
f 129/2/3 123/2/3 128/2/3
f 130/3/3 124/3/3 123/3/3
f 134/2/3 128/2/3 127/2/3
f 134/3/3 129/3/3 128/3/3
f 135/2/3 123/2/3 129/2/3
f 135/3/3 129/3/3 134/3/3
f 136/2/3 123/2/3 135/2/3
f 137/3/3 130/3/3 123/3/3
f 137/2/3 123/2/3 136/2/3
f 138/1/3 131/1/3 130/1/3
f 138/3/3 130/3/3 137/3/3
f 139/1/3 131/1/3 138/1/3
f 140/1/3 133/1/3 132/1/3
f 141/2/3 136/2/3 135/2/3
f 141/2/3 135/2/3 134/2/3
f 142/3/3 137/3/3 136/3/3
f 142/2/3 136/2/3 141/2/3
f 143/3/3 137/3/3 142/3/3
f 144/1/3 140/1/3 139/1/3
f 145/1/3 133/1/3 140/1/3
f 145/1/3 140/1/3 144/1/3
f 146/2/3 141/2/3 134/2/3
f 147/3/3 142/3/3 141/3/3
f 147/2/3 141/2/3 146/2/3
f 148/3/3 142/3/3 147/3/3
f 149/3/3 127/3/3 126/3/3
f 149/2/3 134/2/3 127/2/3
f 149/2/3 146/2/3 134/2/3
f 150/3/3 147/3/3 146/3/3
f 150/2/3 146/2/3 149/2/3
f 151/2/3 148/2/3 147/2/3
f 151/3/3 147/3/3 150/3/3
f 152/3/3 142/3/3 148/3/3
f 152/2/3 148/2/3 151/2/3
f 153/1/3 133/1/3 145/1/3
f 154/1/3 133/1/3 153/1/3
f 155/3/3 151/3/3 150/3/3
f 155/3/3 150/3/3 149/3/3
f 155/3/3 149/3/3 126/3/3
f 155/3/3 152/3/3 151/3/3
f 156/3/3 142/3/3 152/3/3
f 156/3/3 152/3/3 155/3/3
f 157/3/4 158/3/4 160/3/4
f 160/3/4 158/3/4 161/3/4
f 160/2/4 161/2/4 165/2/4
f 161/3/4 162/3/4 165/3/4
f 165/3/4 162/3/4 166/3/4
f 163/3/4 164/3/4 168/3/4
f 168/3/4 164/3/4 169/3/4
f 159/3/4 160/3/4 170/3/4
f 160/2/4 165/2/4 171/2/4
f 165/2/4 166/2/4 171/2/4
f 170/3/4 160/3/4 171/3/4
f 171/2/4 166/2/4 172/2/4
f 172/2/4 166/2/4 173/2/4
f 166/3/4 167/3/4 174/3/4
f 173/2/4 166/2/4 174/2/4
f 174/3/4 167/3/4 175/3/4
f 168/2/4 169/2/4 177/2/4
f 169/3/4 170/3/4 177/3/4
f 170/2/4 171/2/4 178/2/4
f 177/3/4 170/3/4 178/3/4
f 171/2/4 172/2/4 178/2/4
f 172/3/4 173/3/4 179/3/4
f 178/2/4 172/2/4 179/2/4
f 174/2/4 175/2/4 180/2/4
f 179/3/4 173/3/4 180/3/4
f 173/2/4 174/2/4 180/2/4
f 180/2/4 175/2/4 181/2/4
f 175/3/4 176/3/4 182/3/4
f 181/2/4 175/2/4 182/2/4
f 182/3/4 176/3/4 183/3/4
f 163/3/4 168/3/4 184/3/4
f 180/2/4 181/2/4 185/2/4
f 184/3/4 168/3/4 185/3/4
f 177/2/4 178/2/4 185/2/4
f 178/2/4 179/2/4 185/2/4
f 179/2/4 180/2/4 185/2/4
f 168/2/4 177/2/4 185/2/4
f 185/2/4 181/2/4 186/2/4
f 181/3/4 182/3/4 187/3/4
f 186/2/4 181/2/4 187/2/4
f 187/3/4 182/3/4 188/3/4
f 186/2/4 187/2/4 190/2/4
f 187/2/4 188/2/4 190/2/4
f 188/3/4 189/3/4 191/3/4
f 190/2/4 188/2/4 191/2/4
f 191/3/4 189/3/4 192/3/4
f 186/2/4 190/2/4 193/2/4
f 190/3/4 191/3/4 194/3/4
f 193/2/4 190/2/4 194/2/4
f 194/3/4 191/3/4 195/3/4
f 185/3/4 186/3/4 197/3/4
f 186/2/4 193/2/4 198/2/4
f 197/3/4 186/3/4 198/3/4
f 198/2/4 193/2/4 199/2/4
f 193/3/4 194/3/4 200/3/4
f 197/2/4 198/2/4 204/2/4
f 198/3/4 199/3/4 204/3/4
f 199/2/4 193/2/4 205/2/4
f 204/3/4 199/3/4 205/3/4
f 205/2/4 193/2/4 206/2/4
f 193/3/4 200/3/4 207/3/4
f 206/2/4 193/2/4 207/2/4
f 200/1/4 201/1/4 208/1/4
f 207/3/4 200/3/4 208/3/4
f 208/1/4 201/1/4 209/1/4
f 202/1/4 203/1/4 210/1/4
f 205/2/4 206/2/4 211/2/4
f 204/2/4 205/2/4 211/2/4
f 206/3/4 207/3/4 212/3/4
f 211/2/4 206/2/4 212/2/4
f 212/3/4 207/3/4 213/3/4
f 209/1/4 210/1/4 214/1/4
f 210/1/4 203/1/4 215/1/4
f 214/1/4 210/1/4 215/1/4
f 204/2/4 211/2/4 216/2/4
f 211/3/4 212/3/4 217/3/4
f 216/2/4 211/2/4 217/2/4
f 217/3/4 212/3/4 218/3/4
f 196/3/4 197/3/4 219/3/4
f 197/2/4 204/2/4 219/2/4
f 204/2/4 216/2/4 219/2/4
f 216/3/4 217/3/4 220/3/4
f 219/2/4 216/2/4 220/2/4
f 217/2/4 218/2/4 221/2/4
f 220/3/4 217/3/4 221/3/4
f 218/3/4 212/3/4 222/3/4
f 221/2/4 218/2/4 222/2/4
f 215/1/4 203/1/4 223/1/4
f 223/1/4 203/1/4 224/1/4
f 220/3/4 221/3/4 225/3/4
f 219/3/4 220/3/4 225/3/4
f 196/3/4 219/3/4 225/3/4
f 221/3/4 222/3/4 225/3/4
f 222/3/4 212/3/4 226/3/4
f 225/3/4 222/3/4 226/3/4
f 231/3/5 228/3/5 227/3/5
f 232/3/5 228/3/5 231/3/5
f 233/3/5 230/3/5 229/3/5
f 234/3/5 230/3/5 233/3/5
f 237/3/5 236/3/5 235/3/5
f 238/3/5 236/3/5 237/3/5
f 241/3/5 240/3/5 239/3/5
f 242/3/5 240/3/5 241/3/5
f 245/3/5 244/3/5 243/3/5
f 246/3/5 244/3/5 245/3/5
f 249/1/5 248/1/5 247/1/5
f 250/1/5 248/1/5 249/1/5
f 255/1/5 252/1/5 251/1/5
f 256/1/5 252/1/5 255/1/5
f 257/1/5 254/1/5 253/1/5
f 258/1/5 254/1/5 257/1/5
f 259/3/6 260/3/6 261/3/6
f 261/3/6 260/3/6 262/3/6
f 263/3/6 264/3/6 265/3/6
f 265/3/6 264/3/6 266/3/6
f 267/3/6 268/3/6 269/3/6
f 269/3/6 268/3/6 270/3/6
f 271/3/6 272/3/6 275/3/6
f 275/3/6 272/3/6 276/3/6
f 273/3/6 274/3/6 277/3/6
f 277/3/6 274/3/6 278/3/6
f 279/3/6 280/3/6 283/3/6
f 283/3/6 280/3/6 284/3/6
f 281/1/6 282/1/6 285/1/6
f 285/1/6 282/1/6 286/1/6
f 287/3/6 288/3/6 293/3/6
f 293/3/6 288/3/6 294/3/6
f 289/3/6 290/3/6 295/3/6
f 295/3/6 290/3/6 296/3/6
f 291/3/6 292/3/6 297/3/6
f 297/3/6 292/3/6 298/3/6
f 299/3/6 300/3/6 305/3/6
f 305/3/6 300/3/6 306/3/6
f 301/3/6 302/3/6 307/3/6
f 307/3/6 302/3/6 308/3/6
f 303/1/6 304/1/6 309/1/6
f 309/1/6 304/1/6 310/1/6
