# MagicaVoxel @ Ephtracy

# group
o 

# material
mtllib player_idle.mtl
usemtl palette

# normals
vn -1 0 0
vn 1 0 0
vn 0 0 1
vn 0 0 -1
vn 0 -1 0
vn 0 1 0

# texcoords
vt 0.123047 0.5
vt 0.248047 0.5
vt 0.775391 0.5
vt 0.916016 0.5
vt 0.974609 0.5
vt 0.978516 0.5
vt 0.982422 0.5

# verts
v -0.6 0.7 0
v -0.6 0.7 -0.1
v -0.6 1.2 0
v -0.6 1.2 -0.1
v -0.5 0.6 0
v -0.5 0.6 -0.1
v -0.5 0.7 0
v -0.5 0.7 -0.1
v -0.5 1.2 0
v -0.5 1.2 -0.1
v -0.5 1.3 0
v -0.5 1.3 -0.1
v -0.4 0.3 0
v -0.4 0.3 -0.1
v -0.4 0.4 0
v -0.4 0.4 -0.1
v -0.4 0.5 0
v -0.4 0.5 -0.1
v -0.4 1.3 0
v -0.4 1.3 -0.1
v -0.4 1.4 0
v -0.4 1.4 -0.1
v -0.3 0.1 0
v -0.3 0.1 -0.1
v -0.3 0.3 0
v -0.3 0.3 -0.1
v -0.3 0.5 0
v -0.3 0.5 -0.1
v -0.3 0.6 0
v -0.3 0.6 -0.1
v -0.3 1.4 0
v -0.3 1.4 -0.1
v -0.3 1.5 0
v -0.3 1.5 -0.1
v 0.1 0.1 0
v 0.1 0.1 -0.1
v 0.1 0.2 0
v 0.1 0.2 -0.1
v -0.2 0.1 0
v -0.2 0.1 -0.1
v -0.2 0.2 0
v -0.2 0.2 -0.1
v 0.2 0.1 0
v 0.2 0.1 -0.1
v 0.2 0.2 0
v 0.2 0.2 -0.1
v 0.3 0.2 0
v 0.3 0.2 -0.1
v 0.3 0.3 0
v 0.3 0.3 -0.1
v 0.3 1.4 0
v 0.3 1.4 -0.1
v 0.3 1.5 0
v 0.3 1.5 -0.1
v 0.4 0.3 0
v 0.4 0.3 -0.1
v 0.4 0.4 0
v 0.4 0.4 -0.1
v 0.4 0.5 0
v 0.4 0.5 -0.1
v 0.4 0.6 0
v 0.4 0.6 -0.1
v 0.4 1.3 0
v 0.4 1.3 -0.1
v 0.4 1.4 0
v 0.4 1.4 -0.1
v 0.5 0.6 0
v 0.5 0.6 -0.1
v 0.5 0.7 0
v 0.5 0.7 -0.1
v 0.5 1.2 0
v 0.5 1.2 -0.1
v 0.5 1.3 0
v 0.5 1.3 -0.1
v 0.6 0.7 0
v 0.6 0.7 -0.1
v 0.6 1.2 0
v 0.6 1.2 -0.1
v -0.6 0.7 0
v -0.6 1.2 0
v -0.5 0.6 0
v -0.5 0.7 0
v -0.5 1.2 0
v -0.5 1.3 0
v -0.4 0.3 0
v -0.4 0.4 0
v -0.4 0.5 0
v -0.4 0.7 0
v -0.4 0.8 0
v -0.4 1.3 0
v -0.4 1.4 0
v -0.3 0.1 0
v -0.3 0.3 0
v -0.3 0.5 0
v -0.3 0.6 0
v -0.3 0.8 0
v -0.3 0.9 0
v -0.3 1.4 0
v -0.3 1.5 0
v -0.2 0.1 0
v -0.2 0.2 0
v -0.2 0.3 0
v -0.2 0.4 0
v -0.2 0.6 0
v -0.2 0.7 0
v -0.2 0.9 0
v -0.2 1 0
v -0.1 0.8 0
v -0.1 0.9 0
v -0.1 1 0
v -0.1 1.1 0
v 0 0.6 0
v 0 0.7 0
v 0 0.8 0
v 0 1 0
v 0.1 0.1 0
v 0.1 0.2 0
v 0.2 0.1 0
v 0.2 0.2 0
v 0.2 0.6 0
v 0.2 0.7 0
v 0.2 0.8 0
v 0.2 1 0
v 0.3 0.2 0
v 0.3 0.3 0
v 0.3 0.4 0
v 0.3 0.5 0
v 0.3 0.7 0
v 0.3 0.8 0
v 0.3 0.9 0
v 0.3 1 0
v 0.3 1.4 0
v 0.3 1.5 0
v 0.4 0.3 0
v 0.4 0.4 0
v 0.4 0.5 0
v 0.4 0.6 0
v 0.4 0.7 0
v 0.4 0.9 0
v 0.4 1.1 0
v 0.4 1.3 0
v 0.4 1.4 0
v 0.5 0.6 0
v 0.5 0.7 0
v 0.5 1.2 0
v 0.5 1.3 0
v 0.6 0.7 0
v 0.6 1.2 0
v -0.6 0.7 -0.1
v -0.6 1.2 -0.1
v -0.5 0.6 -0.1
v -0.5 0.7 -0.1
v -0.5 1.2 -0.1
v -0.5 1.3 -0.1
v -0.4 0.3 -0.1
v -0.4 0.4 -0.1
v -0.4 0.5 -0.1
v -0.4 0.7 -0.1
v -0.4 0.8 -0.1
v -0.4 1.3 -0.1
v -0.4 1.4 -0.1
v -0.3 0.1 -0.1
v -0.3 0.3 -0.1
v -0.3 0.5 -0.1
v -0.3 0.6 -0.1
v -0.3 0.8 -0.1
v -0.3 0.9 -0.1
v -0.3 1.4 -0.1
v -0.3 1.5 -0.1
v -0.2 0.1 -0.1
v -0.2 0.2 -0.1
v -0.2 0.3 -0.1
v -0.2 0.4 -0.1
v -0.2 0.6 -0.1
v -0.2 0.7 -0.1
v -0.2 0.9 -0.1
v -0.2 1 -0.1
v -0.1 0.8 -0.1
v -0.1 0.9 -0.1
v -0.1 1 -0.1
v -0.1 1.1 -0.1
v 0 0.6 -0.1
v 0 0.7 -0.1
v 0 0.8 -0.1
v 0 1 -0.1
v 0.1 0.1 -0.1
v 0.1 0.2 -0.1
v 0.2 0.1 -0.1
v 0.2 0.2 -0.1
v 0.2 0.6 -0.1
v 0.2 0.7 -0.1
v 0.2 0.8 -0.1
v 0.2 1 -0.1
v 0.3 0.2 -0.1
v 0.3 0.3 -0.1
v 0.3 0.4 -0.1
v 0.3 0.5 -0.1
v 0.3 0.7 -0.1
v 0.3 0.8 -0.1
v 0.3 0.9 -0.1
v 0.3 1 -0.1
v 0.3 1.4 -0.1
v 0.3 1.5 -0.1
v 0.4 0.3 -0.1
v 0.4 0.4 -0.1
v 0.4 0.5 -0.1
v 0.4 0.6 -0.1
v 0.4 0.7 -0.1
v 0.4 0.9 -0.1
v 0.4 1.1 -0.1
v 0.4 1.3 -0.1
v 0.4 1.4 -0.1
v 0.5 0.6 -0.1
v 0.5 0.7 -0.1
v 0.5 1.2 -0.1
v 0.5 1.3 -0.1
v 0.6 0.7 -0.1
v 0.6 1.2 -0.1
v -0.3 0.1 0
v -0.2 0.1 0
v 0.1 0.1 0
v 0.2 0.1 0
v -0.3 0.1 -0.1
v -0.2 0.1 -0.1
v 0.1 0.1 -0.1
v 0.2 0.1 -0.1
v -0.2 0.2 0
v 0.1 0.2 0
v 0.2 0.2 0
v 0.3 0.2 0
v -0.2 0.2 -0.1
v 0.1 0.2 -0.1
v 0.2 0.2 -0.1
v 0.3 0.2 -0.1
v -0.4 0.3 0
v -0.3 0.3 0
v 0.3 0.3 0
v 0.4 0.3 0
v -0.4 0.3 -0.1
v -0.3 0.3 -0.1
v 0.3 0.3 -0.1
v 0.4 0.3 -0.1
v -0.5 0.6 0
v -0.3 0.6 0
v 0.4 0.6 0
v 0.5 0.6 0
v -0.5 0.6 -0.1
v -0.3 0.6 -0.1
v 0.4 0.6 -0.1
v 0.5 0.6 -0.1
v -0.6 0.7 0
v -0.5 0.7 0
v 0.5 0.7 0
v 0.6 0.7 0
v -0.6 0.7 -0.1
v -0.5 0.7 -0.1
v 0.5 0.7 -0.1
v 0.6 0.7 -0.1
v -0.4 0.5 0
v -0.3 0.5 0
v -0.4 0.5 -0.1
v -0.3 0.5 -0.1
v -0.6 1.2 0
v -0.5 1.2 0
v 0.5 1.2 0
v 0.6 1.2 0
v -0.6 1.2 -0.1
v -0.5 1.2 -0.1
v 0.5 1.2 -0.1
v 0.6 1.2 -0.1
v -0.5 1.3 0
v -0.4 1.3 0
v 0.4 1.3 0
v 0.5 1.3 0
v -0.5 1.3 -0.1
v -0.4 1.3 -0.1
v 0.4 1.3 -0.1
v 0.5 1.3 -0.1
v -0.4 1.4 0
v -0.3 1.4 0
v 0.3 1.4 0
v 0.4 1.4 0
v -0.4 1.4 -0.1
v -0.3 1.4 -0.1
v 0.3 1.4 -0.1
v 0.4 1.4 -0.1
v -0.3 1.5 0
v 0.3 1.5 0
v -0.3 1.5 -0.1
v 0.3 1.5 -0.1

# faces
f 3/1/1 2/1/1 1/1/1
f 4/1/1 2/1/1 3/1/1
f 7/1/1 6/1/1 5/1/1
f 8/1/1 6/1/1 7/1/1
f 11/1/1 10/1/1 9/1/1
f 12/1/1 10/1/1 11/1/1
f 15/2/1 14/2/1 13/2/1
f 16/2/1 14/2/1 15/2/1
f 17/5/1 16/5/1 15/5/1
f 18/5/1 16/5/1 17/5/1
f 21/1/1 20/1/1 19/1/1
f 22/1/1 20/1/1 21/1/1
f 25/3/1 24/3/1 23/3/1
f 26/3/1 24/3/1 25/3/1
f 29/5/1 28/5/1 27/5/1
f 30/5/1 28/5/1 29/5/1
f 33/1/1 32/1/1 31/1/1
f 34/1/1 32/1/1 33/1/1
f 37/3/1 36/3/1 35/3/1
f 38/3/1 36/3/1 37/3/1
f 39/3/2 40/3/2 41/3/2
f 41/3/2 40/3/2 42/3/2
f 43/3/2 44/3/2 45/3/2
f 45/3/2 44/3/2 46/3/2
f 47/3/2 48/3/2 49/3/2
f 49/3/2 48/3/2 50/3/2
f 51/1/2 52/1/2 53/1/2
f 53/1/2 52/1/2 54/1/2
f 55/2/2 56/2/2 57/2/2
f 57/2/2 56/2/2 58/2/2
f 57/5/2 58/5/2 59/5/2
f 59/5/2 58/5/2 60/5/2
f 59/1/2 60/1/2 61/1/2
f 61/1/2 60/1/2 62/1/2
f 63/1/2 64/1/2 65/1/2
f 65/1/2 64/1/2 66/1/2
f 67/1/2 68/1/2 69/1/2
f 69/1/2 68/1/2 70/1/2
f 71/1/2 72/1/2 73/1/2
f 73/1/2 72/1/2 74/1/2
f 75/1/2 76/1/2 77/1/2
f 77/1/2 76/1/2 78/1/2
f 82/1/3 80/1/3 79/1/3
f 83/1/3 80/1/3 82/1/3
f 88/1/3 82/1/3 81/1/3
f 88/1/3 83/1/3 82/1/3
f 88/1/3 84/1/3 83/1/3
f 89/1/3 84/1/3 88/1/3
f 90/1/3 84/1/3 89/1/3
f 93/2/3 86/2/3 85/2/3
f 94/5/3 87/5/3 86/5/3
f 95/1/3 88/1/3 81/1/3
f 96/1/3 91/1/3 90/1/3
f 96/2/3 89/2/3 88/2/3
f 96/1/3 90/1/3 89/1/3
f 97/1/3 91/1/3 96/1/3
f 98/1/3 91/1/3 97/1/3
f 100/3/3 93/3/3 92/3/3
f 101/3/3 93/3/3 100/3/3
f 102/2/3 86/2/3 93/2/3
f 102/3/3 93/3/3 101/3/3
f 103/5/3 95/5/3 94/5/3
f 103/2/3 86/2/3 102/2/3
f 103/5/3 94/5/3 86/5/3
f 104/1/3 88/1/3 95/1/3
f 104/5/3 95/5/3 103/5/3
f 105/2/3 96/2/3 88/2/3
f 105/1/3 88/1/3 104/1/3
f 105/2/3 97/2/3 96/2/3
f 106/1/3 99/1/3 98/1/3
f 106/2/3 97/2/3 105/2/3
f 106/1/3 98/1/3 97/1/3
f 107/1/3 99/1/3 106/1/3
f 108/7/3 106/7/3 105/7/3
f 109/2/3 107/2/3 106/2/3
f 109/7/3 106/7/3 108/7/3
f 110/1/3 99/1/3 107/1/3
f 110/2/3 107/2/3 109/2/3
f 111/1/3 99/1/3 110/1/3
f 112/5/3 105/5/3 104/5/3
f 112/5/3 103/5/3 102/5/3
f 112/5/3 104/5/3 103/5/3
f 113/7/3 108/7/3 105/7/3
f 113/5/3 105/5/3 112/5/3
f 114/6/3 109/6/3 108/6/3
f 114/7/3 108/7/3 113/7/3
f 114/6/3 110/6/3 109/6/3
f 115/2/3 111/2/3 110/2/3
f 115/6/3 110/6/3 114/6/3
f 117/3/3 102/3/3 101/3/3
f 118/3/3 117/3/3 116/3/3
f 119/3/3 102/3/3 117/3/3
f 119/3/3 117/3/3 118/3/3
f 120/4/3 113/4/3 112/4/3
f 120/5/3 112/5/3 102/5/3
f 121/2/3 114/2/3 113/2/3
f 121/4/3 113/4/3 120/4/3
f 121/2/3 115/2/3 114/2/3
f 122/2/3 115/2/3 121/2/3
f 123/2/3 111/2/3 115/2/3
f 123/2/3 115/2/3 122/2/3
f 124/3/3 102/3/3 119/3/3
f 125/5/3 120/5/3 102/5/3
f 125/3/3 102/3/3 124/3/3
f 125/5/3 121/5/3 120/5/3
f 126/5/3 121/5/3 125/5/3
f 127/5/3 121/5/3 126/5/3
f 128/7/3 122/7/3 121/7/3
f 128/5/3 121/5/3 127/5/3
f 129/6/3 123/6/3 122/6/3
f 129/7/3 122/7/3 128/7/3
f 130/6/3 123/6/3 129/6/3
f 131/2/3 111/2/3 123/2/3
f 131/6/3 123/6/3 130/6/3
f 132/1/3 99/1/3 111/1/3
f 133/1/3 99/1/3 132/1/3
f 134/2/3 126/2/3 125/2/3
f 135/5/3 127/5/3 126/5/3
f 135/2/3 126/2/3 134/2/3
f 136/1/3 128/1/3 127/1/3
f 136/5/3 127/5/3 135/5/3
f 137/1/3 128/1/3 136/1/3
f 138/7/3 130/7/3 129/7/3
f 138/1/3 128/1/3 137/1/3
f 138/7/3 129/7/3 128/7/3
f 139/2/3 131/2/3 130/2/3
f 139/7/3 130/7/3 138/7/3
f 140/2/3 111/2/3 131/2/3
f 140/2/3 131/2/3 139/2/3
f 140/1/3 132/1/3 111/1/3
f 141/1/3 132/1/3 140/1/3
f 142/1/3 132/1/3 141/1/3
f 143/1/3 139/1/3 138/1/3
f 143/1/3 141/1/3 140/1/3
f 143/1/3 140/1/3 139/1/3
f 143/1/3 138/1/3 137/1/3
f 144/1/3 141/1/3 143/1/3
f 145/1/3 141/1/3 144/1/3
f 146/1/3 141/1/3 145/1/3
f 147/1/3 145/1/3 144/1/3
f 148/1/3 145/1/3 147/1/3
f 149/1/4 150/1/4 152/1/4
f 152/1/4 150/1/4 153/1/4
f 151/1/4 152/1/4 158/1/4
f 152/1/4 153/1/4 158/1/4
f 153/1/4 154/1/4 158/1/4
f 158/1/4 154/1/4 159/1/4
f 159/1/4 154/1/4 160/1/4
f 155/2/4 156/2/4 163/2/4
f 156/5/4 157/5/4 164/5/4
f 151/1/4 158/1/4 165/1/4
f 160/1/4 161/1/4 166/1/4
f 158/2/4 159/2/4 166/2/4
f 159/1/4 160/1/4 166/1/4
f 166/1/4 161/1/4 167/1/4
f 167/1/4 161/1/4 168/1/4
f 162/3/4 163/3/4 170/3/4
f 170/3/4 163/3/4 171/3/4
f 163/2/4 156/2/4 172/2/4
f 171/3/4 163/3/4 172/3/4
f 164/5/4 165/5/4 173/5/4
f 172/2/4 156/2/4 173/2/4
f 156/5/4 164/5/4 173/5/4
f 165/1/4 158/1/4 174/1/4
f 173/5/4 165/5/4 174/5/4
f 158/2/4 166/2/4 175/2/4
f 174/1/4 158/1/4 175/1/4
f 166/2/4 167/2/4 175/2/4
f 168/1/4 169/1/4 176/1/4
f 175/2/4 167/2/4 176/2/4
f 167/1/4 168/1/4 176/1/4
f 176/1/4 169/1/4 177/1/4
f 175/7/4 176/7/4 178/7/4
f 176/2/4 177/2/4 179/2/4
f 178/7/4 176/7/4 179/7/4
f 177/1/4 169/1/4 180/1/4
f 179/2/4 177/2/4 180/2/4
f 180/1/4 169/1/4 181/1/4
f 174/5/4 175/5/4 182/5/4
f 172/5/4 173/5/4 182/5/4
f 173/5/4 174/5/4 182/5/4
f 175/7/4 178/7/4 183/7/4
f 182/5/4 175/5/4 183/5/4
f 178/6/4 179/6/4 184/6/4
f 183/7/4 178/7/4 184/7/4
f 179/6/4 180/6/4 184/6/4
f 180/2/4 181/2/4 185/2/4
f 184/6/4 180/6/4 185/6/4
f 171/3/4 172/3/4 187/3/4
f 186/3/4 187/3/4 188/3/4
f 187/3/4 172/3/4 189/3/4
f 188/3/4 187/3/4 189/3/4
f 182/4/4 183/4/4 190/4/4
f 172/5/4 182/5/4 190/5/4
f 183/2/4 184/2/4 191/2/4
f 190/4/4 183/4/4 191/4/4
f 184/2/4 185/2/4 191/2/4
f 191/2/4 185/2/4 192/2/4
f 185/2/4 181/2/4 193/2/4
f 192/2/4 185/2/4 193/2/4
f 189/3/4 172/3/4 194/3/4
f 172/5/4 190/5/4 195/5/4
f 194/3/4 172/3/4 195/3/4
f 190/5/4 191/5/4 195/5/4
f 195/5/4 191/5/4 196/5/4
f 196/5/4 191/5/4 197/5/4
f 191/7/4 192/7/4 198/7/4
f 197/5/4 191/5/4 198/5/4
f 192/6/4 193/6/4 199/6/4
f 198/7/4 192/7/4 199/7/4
f 199/6/4 193/6/4 200/6/4
f 193/2/4 181/2/4 201/2/4
f 200/6/4 193/6/4 201/6/4
f 181/1/4 169/1/4 202/1/4
f 202/1/4 169/1/4 203/1/4
f 195/2/4 196/2/4 204/2/4
f 196/5/4 197/5/4 205/5/4
f 204/2/4 196/2/4 205/2/4
f 197/1/4 198/1/4 206/1/4
f 205/5/4 197/5/4 206/5/4
f 206/1/4 198/1/4 207/1/4
f 199/7/4 200/7/4 208/7/4
f 207/1/4 198/1/4 208/1/4
f 198/7/4 199/7/4 208/7/4
f 200/2/4 201/2/4 209/2/4
f 208/7/4 200/7/4 209/7/4
f 201/2/4 181/2/4 210/2/4
f 209/2/4 201/2/4 210/2/4
f 181/1/4 202/1/4 210/1/4
f 210/1/4 202/1/4 211/1/4
f 211/1/4 202/1/4 212/1/4
f 208/1/4 209/1/4 213/1/4
f 210/1/4 211/1/4 213/1/4
f 209/1/4 210/1/4 213/1/4
f 207/1/4 208/1/4 213/1/4
f 213/1/4 211/1/4 214/1/4
f 214/1/4 211/1/4 215/1/4
f 215/1/4 211/1/4 216/1/4
f 214/1/4 215/1/4 217/1/4
f 217/1/4 215/1/4 218/1/4
f 223/3/5 220/3/5 219/3/5
f 224/3/5 220/3/5 223/3/5
f 225/3/5 222/3/5 221/3/5
f 226/3/5 222/3/5 225/3/5
f 231/3/5 228/3/5 227/3/5
f 232/3/5 228/3/5 231/3/5
f 233/3/5 230/3/5 229/3/5
f 234/3/5 230/3/5 233/3/5
f 239/2/5 236/2/5 235/2/5
f 240/2/5 236/2/5 239/2/5
f 241/2/5 238/2/5 237/2/5
f 242/2/5 238/2/5 241/2/5
f 247/1/5 244/1/5 243/1/5
f 248/1/5 244/1/5 247/1/5
f 249/1/5 246/1/5 245/1/5
f 250/1/5 246/1/5 249/1/5
f 255/1/5 252/1/5 251/1/5
f 256/1/5 252/1/5 255/1/5
f 257/1/5 254/1/5 253/1/5
f 258/1/5 254/1/5 257/1/5
f 259/5/6 260/5/6 261/5/6
f 261/5/6 260/5/6 262/5/6
f 263/1/6 264/1/6 267/1/6
f 267/1/6 264/1/6 268/1/6
f 265/1/6 266/1/6 269/1/6
f 269/1/6 266/1/6 270/1/6
f 271/1/6 272/1/6 275/1/6
f 275/1/6 272/1/6 276/1/6
f 273/1/6 274/1/6 277/1/6
f 277/1/6 274/1/6 278/1/6
f 279/1/6 280/1/6 283/1/6
f 283/1/6 280/1/6 284/1/6
f 281/1/6 282/1/6 285/1/6
f 285/1/6 282/1/6 286/1/6
f 287/1/6 288/1/6 289/1/6
f 289/1/6 288/1/6 290/1/6
